<?xml version="1.0" encoding="UTF-8"?>
<svg id="Capa_1" data-name="Capa 1" xmlns="http://www.w3.org/2000/svg" viewBox="0 0 848 662">
  <defs>
    <style>
      .cls-1 {
        fill: #fff;
        fill-rule: evenodd;
      }
    </style>
  </defs>
  <path id="shape.primary" class="cls-1" d="M755.55,636.74c-36.98,0-67.06-30.04-67.06-66.97s30.08-66.97,67.06-66.97,67.08,30.05,67.08,66.97-30.09,66.97-67.08,66.97h0Zm-331.54,0c-168.87,0-306.26-137.15-306.26-305.75,0-53.09,13.76-102.99,37.71-146.54h178.85c-49.37,30.24-82.41,84.61-82.41,146.54,0,94.74,77.21,171.81,172.11,171.81h268.22c-17.85,16.83-29.06,40.6-29.06,66.97s11.21,50.15,29.06,66.97H424.01Zm-318.91,0c-36.98,0-67.08-30.04-67.08-66.97s30.1-66.97,67.08-66.97h35.61c36.4,59.61,91.16,106.86,156.36,133.95H105.1ZM25.37,92.2c0-36.92,30.09-66.94,67.07-66.94s67.07,30.03,67.07,66.94-30.09,66.97-67.07,66.97S25.37,129.13,25.37,92.2Zm545.42,238.79c0,80.81-65.84,146.55-146.79,146.55s-146.78-65.74-146.78-146.55,65.84-146.54,146.78-146.54,146.79,65.73,146.79,146.54h0ZM389.73,25.26h34.28l12.67,.32c163.01,6.66,293.58,141.07,293.58,305.41,0,51.03-13.03,101.54-37.74,146.55h-178.75c49.36-30.24,82.35-84.61,82.35-146.55,0-94.74-77.21-171.81-172.11-171.81H155.77c17.84-16.83,29.05-40.59,29.05-66.97s-11.21-50.12-29.05-66.94h233.96Zm353.18,0c36.98,0,67.08,30.03,67.08,66.94s-30.1,66.97-67.08,66.97h-35.62c-36.41-59.6-91.15-106.84-156.34-133.91h191.96Zm105.03,544.51c0-50.85-41.45-92.23-92.38-92.23h-34.52c22.64-45.58,34.52-95.82,34.52-146.55s-12.41-102.34-34.38-146.54h21.73c50.93,0,92.39-41.38,92.39-92.24S793.85,0,742.91,0H92.44C41.5,0,.06,41.36,.06,92.2s41.44,92.24,92.38,92.24h34.46c-21.98,44.21-34.46,93.92-34.46,146.54s12.4,102.33,34.37,146.55h-21.71c-50.94,0-92.38,41.38-92.38,92.23s41.44,92.23,92.38,92.23H755.56c50.93,0,92.38-41.37,92.38-92.23h0Z"/>
</svg>